<?xml version="1.0" encoding="utf-8"?>
<svg xmlns="http://www.w3.org/2000/svg" style="margin: auto; display: block; shape-rendering: auto;" width="280" height="250" preserveAspectRatio="xMidYMid">
<style type="text/css">
  text {
    text-anchor: middle; font-size: 80px; opacity: 0;
  }
</style>
<g style="transform-origin:140px 125px;transform:scale(1)">
<g transform="translate(140,125)">
  <g transform="translate(0,0)"><g class="path" style="transform: matrix(0.01, 0, 0, 0.01, 0, 0); transform-origin: -160px 2.86168px; animation: 1s linear 0s 1 normal forwards running bounce-in-610a6edb-e0ce-421e-90d5-36052ed5c41e;"><path d="M24.72 15.52L24.72 15.52L24.72 15.52Q33.12 15.52 37.80 12.08L37.80 12.08L37.80 12.08Q42.48 8.64 42.48 2.96L42.48 2.96L42.48 2.96Q42.48-1.12 40.44-4.24L40.44-4.24L40.44-4.24Q38.40-7.36 35.36-9.40L35.36-9.40L35.36-9.40Q32.32-11.44 29.16-13.44L29.16-13.44L29.16-13.44Q26-15.44 23.28-18.48L23.28-18.48L23.28-18.48Q20.56-21.52 19.68-25.36L19.68-25.36L19.68-25.36Q12.40-27.52 10.08-34.40L10.08-34.40L10.08-34.40Q9.20-37.04 9.20-39.92L9.20-39.92L9.20-39.92Q9.20-42.80 10.08-45.92L10.08-45.92L10.08-45.92Q11.92-52.08 16.08-55.20L16.08-55.20L16.96-53.92L16.96-53.92Q13.20-51.20 11.52-45.44L11.52-45.44L11.52-45.44Q10.72-42.56 10.72-39.92L10.72-39.92L10.72-39.92Q10.72-37.28 11.52-34.88L11.52-34.88L11.52-34.88Q13.44-29.04 19.44-27.04L19.44-27.04L19.44-27.04Q19.28-27.92 19.28-29.76L19.28-29.76L19.28-29.76Q19.28-40.24 26.88-46.72L26.88-46.72L26.88-46.72Q34.48-53.20 45.44-53.20L45.44-53.20L45.44-53.20Q52.64-53.20 56.96-49.28L56.96-49.28L56.96-49.28Q60.64-45.84 60.64-40.84L60.64-40.84L60.64-40.84Q60.64-35.84 57.28-32.20L57.28-32.20L57.28-32.20Q53.92-28.56 48.24-28.56L48.24-28.56L48.24-28.56Q45.12-28.56 43.12-29.76L43.12-29.76L43.12-29.76Q39.04-26.64 33.44-25.28L33.44-25.28L33.44-25.28Q35.04-23.76 40.92-19.68L40.92-19.68L40.92-19.68Q46.80-15.60 49.72-11.88L49.72-11.88L49.72-11.88Q52.64-8.16 52.64-3.20L52.64-3.20L52.64-3.20Q52.64 5.92 45.56 11.60L45.56 11.60L45.56 11.60Q38.48 17.28 27.64 17.28L27.64 17.28L27.64 17.28Q16.80 17.28 11.28 12.48L11.28 12.48L11.28 12.48Q6.48 8.40 6.48 2.52L6.48 2.52L6.48 2.52Q6.48-3.36 10.28-7.56L10.28-7.56L10.28-7.56Q14.08-11.76 19.76-11.76L19.76-11.76L19.76-11.76Q25.44-11.76 28.16-9.24L28.16-9.24L28.16-9.24Q30.88-6.72 30.88-3.12L30.88-3.12L30.88-3.12Q30.88 0.48 28.68 3.28L28.68 3.28L28.68 3.28Q26.48 6.08 22.96 6.08L22.96 6.08L22.96 6.08Q19.44 6.08 17.36 3.84L17.36 3.84L17.36 3.84Q15.44 1.92 15.20-0.96L15.20-0.96L15.20-0.96Q15.12-1.76 15.20-1.92L15.20-1.92L16.72-1.84L16.72-1.84Q16.64 0.96 18.48 2.80L18.48 2.80L18.48 2.80Q20 4.48 22.92 4.48L22.92 4.48L22.92 4.48Q25.84 4.48 27.60 2.20L27.60 2.20L27.60 2.20Q29.36-0.08 29.36-3.08L29.36-3.08L29.36-3.08Q29.36-6.08 27.28-7.92L27.28-7.92L27.28-7.92Q24.96-10.24 19.84-10.24L19.84-10.24L19.84-10.24Q14.72-10.24 11.36-6.52L11.36-6.52L11.36-6.52Q8-2.80 8 2.44L8 2.44L8 2.44Q8 7.68 12.32 11.36L12.32 11.36L12.32 11.36Q14.88 13.60 17.56 14.56L17.56 14.56L17.56 14.56Q20.24 15.52 24.72 15.52zM38.32-39.52L38.32-39.52L38.32-39.52Q38.32-43.04 40.12-45.36L40.12-45.36L40.12-45.36Q41.92-47.68 45.04-47.68L45.04-47.68L45.04-47.68Q50.40-47.68 50.40-41.80L50.40-41.80L50.40-41.80Q50.40-35.92 44.56-30.72L44.56-30.72L44.56-30.72Q46.32-29.92 48.24-29.92L48.24-29.92L48.24-29.92Q53.20-29.92 56.16-33.16L56.16-33.16L56.16-33.16Q59.12-36.40 59.12-40.76L59.12-40.76L59.12-40.76Q59.12-45.12 55.92-48.16L55.92-48.16L55.92-48.16Q52-51.68 45.60-51.68L45.60-51.68L45.60-51.68Q39.20-51.68 34.72-48.56L34.72-48.56L34.72-48.56Q27.76-43.60 27.76-35.76L27.76-35.76L27.76-35.76Q27.76-29.28 32.08-26.32L32.08-26.32L32.08-26.32Q37.44-27.52 42-30.64L42-30.64L42-30.64Q38.32-33.92 38.32-39.52zM44.96-46.24L44.96-46.24L44.96-46.24Q42.56-46.24 41.24-44.40L41.24-44.40L41.24-44.40Q39.92-42.56 39.92-39.52L39.92-39.52L39.92-39.52Q39.92-34.32 43.20-31.60L43.20-31.60L43.20-31.60Q45.60-33.28 47.20-36.16L47.20-36.16L47.20-36.16Q48.80-39.04 48.80-41.84L48.80-41.84L48.80-41.84Q48.80-46.24 44.96-46.24" fill="#ffffff" stroke="none" stroke-width="none" transform="translate(-193.55999755859375,21.821677745472293)" style="fill: rgb(255, 255, 255);"></path></g><g class="path" style="transform: matrix(0.01, 0, 0, 0.01, 0, 0); transform-origin: -114.76px 6.62168px; animation: 1s linear 0.06s 1 normal forwards running bounce-in-610a6edb-e0ce-421e-90d5-36052ed5c41e;"><path d="M89.76 0.72L89.76 0.72L89.76 0.72Q82.72 0.72 82.08-5.44L82.08-5.44L82.08-5.44Q78.56 0.72 73.20 0.72L73.20 0.72L73.20 0.72Q67.84 0.72 64.68-2.52L64.68-2.52L64.68-2.52Q61.52-5.76 61.52-11.60L61.52-11.60L61.52-11.60Q61.52-20.72 66-25.92L66-25.92L66-25.92Q70.48-31.12 77.60-31.12L77.60-31.12L77.60-31.12Q83.44-31.12 85.36-25.60L85.36-25.60L85.36-25.60Q85.76-28 86.24-30.40L86.24-30.40L86.24-30.40Q92.16-30.40 95.04-30.88L95.04-30.88L96.08-31.12L90.56-0.88L90.56-0.88Q92.96-1.12 94.56-3.12L94.56-3.12L95.76-2.16L95.76-2.16Q93.36 0.72 89.76 0.72zM70.56-7.52L70.56-7.52Q70.56-3.92 71.48-2.52L71.48-2.52L71.48-2.52Q72.40-1.12 74.32-1.12L74.32-1.12L74.32-1.12Q76.24-1.12 78.24-3.20L78.24-3.20L78.24-3.20Q80.88-5.92 82.48-10.08L82.48-10.08L82.48-10.08Q82.72-11.12 83.40-15.08L83.40-15.08L83.40-15.08Q84.08-19.04 84.56-21.60L84.56-21.60L84.56-21.60Q84.32-24.64 82.88-26.88L82.88-26.88L82.88-26.88Q81.44-29.12 79.28-29.12L79.28-29.12L79.28-29.12Q75.36-29.12 72.96-22.12L72.96-22.12L72.96-22.12Q70.56-15.12 70.56-7.52L70.56-7.52" fill="#ffffff" stroke="none" stroke-width="none" transform="translate(-193.55999755859375,21.821677745472293)" style="fill: rgb(255, 255, 255);"></path></g><g class="path" style="transform: matrix(0.01, 0, 0, 0.01, 0, 0); transform-origin: -78.84px 6.62168px; animation: 1s linear 0.12s 1 normal forwards running bounce-in-610a6edb-e0ce-421e-90d5-36052ed5c41e;"><path d="M119.52-16.72L119.52-16.72L119.52-16.72Q117.84-18.40 117.84-20.80L117.84-20.80L117.84-20.80Q117.84-23.20 119.52-24.92L119.52-24.92L119.52-24.92Q121.20-26.64 123.60-26.64L123.60-26.64L123.60-26.64Q124.32-26.64 125.44-26.32L125.44-26.32L125.44-26.32Q123.92-29.12 119.76-29.12L119.76-29.12L119.76-29.12Q115.60-29.12 112.40-23.84L112.40-23.84L112.40-23.84Q109.20-18.56 109.20-8.16L109.20-8.16L109.20-8.16Q109.20-4.56 110.84-2.84L110.84-2.84L110.84-2.84Q112.48-1.12 114.96-1.12L114.96-1.12L114.96-1.12Q117.44-1.12 119.48-2.08L119.48-2.08L119.48-2.08Q121.52-3.04 122.72-4.36L122.72-4.36L122.72-4.36Q123.92-5.68 124.80-7.12L124.80-7.12L124.80-7.12Q126.40-9.76 126.40-10.48L126.40-10.48L127.84-9.84L127.84-9.84Q127.60-8.56 126.40-6.44L126.40-6.44L126.40-6.44Q125.20-4.32 123.76-2.96L123.76-2.96L123.76-2.96Q122.32-1.60 119.52-0.44L119.52-0.44L119.52-0.44Q116.72 0.72 113.28 0.72L113.28 0.72L113.28 0.72Q106.80 0.72 103.48-2.36L103.48-2.36L103.48-2.36Q100.16-5.44 100.16-10.80L100.16-10.80L100.16-10.80Q100.16-20.32 104.92-25.72L104.92-25.72L104.92-25.72Q109.68-31.12 117.84-31.12L117.84-31.12L117.84-31.12Q123.36-31.12 126.32-28.32L126.32-28.32L126.32-28.32Q129.28-25.52 129.28-20.96L129.28-20.96L129.28-20.96Q129.28-18.08 127.56-16.56L127.56-16.56L127.56-16.56Q125.84-15.04 123.52-15.04L123.52-15.04L123.52-15.04Q121.20-15.04 119.52-16.72" fill="#ffffff" stroke="none" stroke-width="none" transform="translate(-193.55999755859375,21.821677745472293)" style="fill: rgb(255, 255, 255);"></path></g><g class="path" style="transform: matrix(0.01, 0, 0, 0.01, 0, 0); transform-origin: -43.72px -3.73832px; animation: 1s linear 0.18s 1 normal forwards running bounce-in-610a6edb-e0ce-421e-90d5-36052ed5c41e;"><path d="M162.64-0.88L162.64-0.88L162.64-0.88Q164.56-0.88 166.64-3.12L166.64-3.12L167.84-2.16L167.84-2.16Q167.28-1.04 165.36-0.16L165.36-0.16L165.36-0.16Q163.44 0.72 161.12 0.72L161.12 0.72L161.12 0.72Q153.84 0.72 153.84-5.84L153.84-5.84L153.84-5.84Q153.84-8.64 155.28-15.84L155.28-15.84L155.28-15.84Q156.72-23.04 156.72-25.28L156.72-25.28L156.72-25.28Q156.72-28.72 153.44-28.72L153.44-28.72L153.44-28.72Q150.72-28.72 148.20-25.04L148.20-25.04L148.20-25.04Q145.68-21.36 144.08-15.04L144.08-15.04L141.44 0L131.84 0L140.72-50.24L140.72-50.24Q138.32-50 136.72-48L136.72-48L135.52-48.96L135.52-48.96Q137.92-51.84 141.56-51.84L141.56-51.84L141.56-51.84Q145.20-51.84 147.20-50L147.20-50L147.20-50Q149.20-48.16 149.20-44.80L149.20-44.80L149.20-44.80Q149.20-44.16 149.04-42.72L149.04-42.72L145.68-23.76L145.68-23.76Q148.96-31.12 155.84-31.12L155.84-31.12L155.84-31.12Q160.56-31.12 163.20-28.44L163.20-28.44L163.20-28.44Q165.84-25.76 165.84-21.04L165.84-21.04L165.84-21.04Q165.84-18.56 164.32-11.48L164.32-11.48L164.32-11.48Q162.80-4.40 162.64-0.88" fill="#ffffff" stroke="none" stroke-width="none" transform="translate(-193.55999755859375,21.821677745472293)" style="fill: rgb(255, 255, 255);"></path></g><g class="path" style="transform: matrix(0.01, 0, 0, 0.01, 0, 0); transform-origin: -4.32px 6.62168px; animation: 1s linear 0.24s 1 normal forwards running bounce-in-610a6edb-e0ce-421e-90d5-36052ed5c41e;"><path d="M176.56-29.52L176.56-29.52L176.56-29.52Q174.64-29.52 172.56-27.28L172.56-27.28L171.36-28.24L171.36-28.24Q171.92-29.36 173.84-30.24L173.84-30.24L173.84-30.24Q175.76-31.12 178.08-31.12L178.08-31.12L178.08-31.12Q185.36-31.12 185.36-24.56L185.36-24.56L185.36-24.56Q185.36-21.76 183.92-14.56L183.92-14.56L183.92-14.56Q182.48-7.36 182.48-5.12L182.48-5.12L182.48-5.12Q182.48-1.68 185.76-1.68L185.76-1.68L185.76-1.68Q188.08-1.68 190.28-4.40L190.28-4.40L190.28-4.40Q192.48-7.12 194.08-11.92L194.08-11.92L197.44-30.40L197.44-30.40Q203.36-30.40 206.08-30.88L206.08-30.88L207.12-31.12L201.76-0.88L201.76-0.88Q204.16-1.12 205.76-3.12L205.76-3.12L206.96-2.16L206.96-2.16Q204.56 0.72 200.96 0.72L200.96 0.72L200.96 0.72Q197.36 0.72 195.36-1.04L195.36-1.04L195.36-1.04Q193.36-2.80 193.28-6L193.28-6L193.28-6Q189.92 0.72 183.36 0.72L183.36 0.72L183.36 0.72Q178.64 0.72 176.00-1.96L176.00-1.96L176.00-1.96Q173.36-4.64 173.36-9.36L173.36-9.36L173.36-9.36Q173.36-11.84 174.88-18.92L174.88-18.92L174.88-18.92Q176.40-26 176.56-29.52" fill="#ffffff" stroke="none" stroke-width="none" transform="translate(-193.55999755859375,21.821677745472293)" style="fill: rgb(255, 255, 255);"></path></g><g class="path" style="transform: matrix(0.01, 0, 0, 0.01, 0, 0); transform-origin: 29.52px -3.73832px; animation: 1s linear 0.3s 1 normal forwards running bounce-in-610a6edb-e0ce-421e-90d5-36052ed5c41e;"><path d="M226.16-2.88L226.16-2.88L226.16-2.88Q225.12-1.52 223.32-0.40L223.32-0.40L223.32-0.40Q221.52 0.72 218.64 0.72L218.64 0.72L218.64 0.72Q215.76 0.72 213.76-1.12L213.76-1.12L213.76-1.12Q211.76-2.96 211.76-6.32L211.76-6.32L211.76-6.32Q211.76-6.96 211.92-8.40L211.92-8.40L217.12-37.20L217.12-37.20Q218.56-45.12 221.08-48.48L221.08-48.48L221.08-48.48Q223.60-51.84 227.76-51.84L227.76-51.84L227.76-51.84Q230.64-51.84 232.52-49.68L232.52-49.68L232.52-49.68Q234.40-47.52 234.40-43.12L234.40-43.12L234.40-43.12Q234.40-38.72 231-30.56L231-30.56L231-30.56Q227.60-22.40 227.60-18.64L227.60-18.64L226.16-18.64L226.16-18.64Q226.16-22.88 229.52-30.76L229.52-30.76L229.52-30.76Q232.88-38.64 232.88-43.36L232.88-43.36L232.88-43.36Q232.88-46.24 231.56-48.32L231.56-48.32L231.56-48.32Q230.24-50.40 228.32-50.40L228.32-50.40L228.32-50.40Q228.24-48.32 225.56-31.72L225.56-31.72L225.56-31.72Q222.88-15.12 220.24-0.88L220.24-0.88L220.24-0.88Q222.48-0.88 224.40-3.20L224.40-3.20L224.40-3.20Q226.32-5.52 227.12-7.84L227.12-7.84L228-10.24L229.44-9.60L229.44-9.60Q229.20-8.48 228.20-6.36L228.20-6.36L228.20-6.36Q227.20-4.24 226.16-2.88" fill="#ffffff" stroke="none" stroke-width="none" transform="translate(-193.55999755859375,21.821677745472293)" style="fill: rgb(255, 255, 255);"></path></g><g class="path" style="transform: matrix(0.01, 0, 0, 0.01, 0, 0); transform-origin: 57.48px 6.62168px; animation: 1s linear 0.36s 1 normal forwards running bounce-in-610a6edb-e0ce-421e-90d5-36052ed5c41e;"><path d="M262 0.72L262 0.72L262 0.72Q254.96 0.72 254.32-5.44L254.32-5.44L254.32-5.44Q250.80 0.72 245.44 0.72L245.44 0.72L245.44 0.72Q240.08 0.72 236.92-2.52L236.92-2.52L236.92-2.52Q233.76-5.76 233.76-11.60L233.76-11.60L233.76-11.60Q233.76-20.72 238.24-25.92L238.24-25.92L238.24-25.92Q242.72-31.12 249.84-31.12L249.84-31.12L249.84-31.12Q255.68-31.12 257.60-25.60L257.60-25.60L257.60-25.60Q258-28 258.48-30.40L258.48-30.40L258.48-30.40Q264.40-30.40 267.28-30.88L267.28-30.88L268.32-31.12L262.80-0.88L262.80-0.88Q265.20-1.12 266.80-3.12L266.80-3.12L268-2.16L268-2.16Q265.60 0.72 262 0.72zM242.80-7.52L242.80-7.52Q242.80-3.92 243.72-2.52L243.72-2.52L243.72-2.52Q244.64-1.12 246.56-1.12L246.56-1.12L246.56-1.12Q248.48-1.12 250.48-3.20L250.48-3.20L250.48-3.20Q253.12-5.92 254.72-10.08L254.72-10.08L254.72-10.08Q254.96-11.12 255.64-15.08L255.64-15.08L255.64-15.08Q256.32-19.04 256.80-21.60L256.80-21.60L256.80-21.60Q256.56-24.64 255.12-26.88L255.12-26.88L255.12-26.88Q253.68-29.12 251.52-29.12L251.52-29.12L251.52-29.12Q247.60-29.12 245.20-22.12L245.20-22.12L245.20-22.12Q242.80-15.12 242.80-7.52L242.80-7.52" fill="#ffffff" stroke="none" stroke-width="none" transform="translate(-193.55999755859375,21.821677745472293)" style="fill: rgb(255, 255, 255);"></path></g><g class="path" style="transform: matrix(0.01, 0, 0, 0.01, 0, 0); transform-origin: 91.48px 0.701679px; animation: 1s linear 0.42s 1 normal forwards running bounce-in-610a6edb-e0ce-421e-90d5-36052ed5c41e;"><path d="M273.36-30.40L277.44-30.40L279.60-42.24L279.60-42.24Q285.52-42.24 288.40-42.72L288.40-42.72L289.44-42.96L289.44-42.96Q288.32-37.36 286.96-30.40L286.96-30.40L296.88-30.40L296.72-28.96L286.72-28.96L286.72-28.96Q282.72-8.32 282.72-4.08L282.72-4.08L282.72-4.08Q282.72-1.52 285.44-1.52L285.44-1.52L285.44-1.52Q288.16-1.52 290.40-4.96L290.40-4.96L290.40-4.96Q292.64-8.40 293.60-12.40L293.60-12.40L295.04-11.92L295.04-11.92Q292.08 0.72 282.80 0.72L282.80 0.72L282.80 0.72Q278.96 0.72 276.40-1.40L276.40-1.40L276.40-1.40Q273.84-3.52 273.84-7.32L273.84-7.32L273.84-7.32Q273.84-11.12 277.12-28.96L277.12-28.96L273.20-28.96L273.36-30.40" fill="#ffffff" stroke="none" stroke-width="none" transform="translate(-193.55999755859375,21.821677745472293)" style="fill: rgb(255, 255, 255);"></path></g><g class="path" style="transform: matrix(0.01, 0, 0, 0.01, 0, 0); transform-origin: 121.96px 6.62168px; animation: 1s linear 0.48s 1 normal forwards running bounce-in-610a6edb-e0ce-421e-90d5-36052ed5c41e;"><path d="M326.48 0.72L326.48 0.72L326.48 0.72Q319.44 0.72 318.80-5.44L318.80-5.44L318.80-5.44Q315.28 0.72 309.92 0.72L309.92 0.72L309.92 0.72Q304.56 0.72 301.40-2.52L301.40-2.52L301.40-2.52Q298.24-5.76 298.24-11.60L298.24-11.60L298.24-11.60Q298.24-20.72 302.72-25.92L302.72-25.92L302.72-25.92Q307.20-31.12 314.32-31.12L314.32-31.12L314.32-31.12Q320.16-31.12 322.08-25.60L322.08-25.60L322.08-25.60Q322.48-28 322.96-30.40L322.96-30.40L322.96-30.40Q328.88-30.40 331.76-30.88L331.76-30.88L332.80-31.12L327.28-0.88L327.28-0.88Q329.68-1.12 331.28-3.12L331.28-3.12L332.48-2.16L332.48-2.16Q330.08 0.72 326.48 0.72zM307.28-7.52L307.28-7.52Q307.28-3.92 308.20-2.52L308.20-2.52L308.20-2.52Q309.12-1.12 311.04-1.12L311.04-1.12L311.04-1.12Q312.96-1.12 314.96-3.20L314.96-3.20L314.96-3.20Q317.60-5.92 319.20-10.08L319.20-10.08L319.20-10.08Q319.44-11.12 320.12-15.08L320.12-15.08L320.12-15.08Q320.80-19.04 321.28-21.60L321.28-21.60L321.28-21.60Q321.04-24.64 319.60-26.88L319.60-26.88L319.60-26.88Q318.16-29.12 316-29.12L316-29.12L316-29.12Q312.08-29.12 309.68-22.12L309.68-22.12L309.68-22.12Q307.28-15.12 307.28-7.52L307.28-7.52" fill="#ffffff" stroke="none" stroke-width="none" transform="translate(-193.55999755859375,21.821677745472293)" style="fill: rgb(255, 255, 255);"></path></g><g class="path" style="transform: matrix(0.01, 0, 0, 0.01, 0, 0); transform-origin: 155.96px 0.701679px; animation: 1s linear 0.54s 1 normal forwards running bounce-in-610a6edb-e0ce-421e-90d5-36052ed5c41e;"><path d="M337.84-30.40L341.92-30.40L344.08-42.24L344.08-42.24Q350-42.24 352.88-42.72L352.88-42.72L353.92-42.96L353.92-42.96Q352.80-37.36 351.44-30.40L351.44-30.40L361.36-30.40L361.20-28.96L351.20-28.96L351.20-28.96Q347.20-8.32 347.20-4.08L347.20-4.08L347.20-4.08Q347.20-1.52 349.92-1.52L349.92-1.52L349.92-1.52Q352.64-1.52 354.88-4.96L354.88-4.96L354.88-4.96Q357.12-8.40 358.08-12.40L358.08-12.40L359.52-11.92L359.52-11.92Q356.56 0.72 347.28 0.72L347.28 0.72L347.28 0.72Q343.44 0.72 340.88-1.40L340.88-1.40L340.88-1.40Q338.32-3.52 338.32-7.32L338.32-7.32L338.32-7.32Q338.32-11.12 341.60-28.96L341.60-28.96L337.68-28.96L337.84-30.40" fill="#ffffff" stroke="none" stroke-width="none" transform="translate(-193.55999755859375,21.821677745472293)" style="fill: rgb(255, 255, 255);"></path></g><g class="path" style="transform: matrix(0.01, 0, 0, 0.01, 0, 0); transform-origin: 183.88px 6.62168px; animation: 1s linear 0.6s 1 normal forwards running bounce-in-610a6edb-e0ce-421e-90d5-36052ed5c41e;"><path d="M369.52-29.60L369.52-29.60L369.52-29.60Q367.52-29.60 366.16-28.24L366.16-28.24L366.16-28.24Q364.80-26.88 364.80-25.04L364.80-25.04L364.80-25.04Q364.80-23.20 365.84-21.28L365.84-21.28L364.40-20.72L364.40-20.72Q363.12-22.32 363.12-24.96L363.12-24.96L363.12-24.96Q363.12-27.60 364.92-29.36L364.92-29.36L364.92-29.36Q366.72-31.12 369.28-31.12L369.28-31.12L369.28-31.12Q371.84-31.12 376.12-30.36L376.12-30.36L376.12-30.36Q380.40-29.60 385.72-29.64L385.72-29.64L385.72-29.64Q391.04-29.68 393.60-30.32L393.60-30.32L372.40-2.08L372.40-2.08Q376.64-0.80 381.68-0.72L381.68-0.72L381.68-0.72Q384.88-0.72 387.24-2.52L387.24-2.52L387.24-2.52Q389.60-4.32 390.32-6.08L390.32-6.08L391.04-7.84L392.40-7.36L392.40-7.36Q391.68-4.48 389.12-1.88L389.12-1.88L389.12-1.88Q386.56 0.72 381.48 0.72L381.48 0.72L381.48 0.72Q376.40 0.72 372.24-0.40L372.24-0.40L372.24-0.40Q368.08-1.52 366.16-1.52L366.16-1.52L366.16-1.52Q364.24-1.52 362.72 0L362.72 0L361.28 0L382.24-28.32L382.24-28.32Q378.08-28.48 374.80-29.04L374.80-29.04L374.80-29.04Q371.52-29.60 369.52-29.60" fill="#ffffff" stroke="none" stroke-width="none" transform="translate(-193.55999755859375,21.821677745472293)" style="fill: rgb(255, 255, 255);"></path></g></g>
</g>
</g>
<style id="bounce-in-610a6edb-e0ce-421e-90d5-36052ed5c41e" data-anikit="">@keyframes bounce-in-610a6edb-e0ce-421e-90d5-36052ed5c41e
{
  0% {
    animation-timing-function: cubic-bezier(0.0383,0.3388,0.0421,0.6652);
    transform: matrix(0.01,0,0,0.01,0,0);
    opacity: 1;
  }
  4.7% {
    animation-timing-function: cubic-bezier(0.3296,0.3336,0.5772,0.6672);
    transform: matrix(0.556,0,0,0.556,0,0);
    opacity: 1;
  }
  8.4% {
    animation-timing-function: cubic-bezier(0.0781,0.1617,0.0874,0.9301);
    transform: matrix(0.979,0,0,0.979,0,0);
    opacity: 1;
  }
  12.4% {
    animation-timing-function: cubic-bezier(0.8341,0.1496,0.8634,0.7673);
    transform: matrix(1.153,0,0,1.153,0,0);
    opacity: 1;
  }
  16.3% {
    animation-timing-function: cubic-bezier(0.3264,0.3332,0.5758,0.6695);
    transform: matrix(1.008,0,0,1.008,0,0);
    opacity: 1;
  }
  21.2% {
    animation-timing-function: cubic-bezier(0.0921,0.1883,0.3277,1);
    transform: matrix(0.704,0,0,0.704,0,0);
    opacity: 1;
  }
  24.5% {
    animation-timing-function: cubic-bezier(0.6905,0.0944,0.8759,0.7624);
    transform: matrix(0.626,0,0,0.626,0,0);
    opacity: 1;
  }
  27.7% {
    animation-timing-function: cubic-bezier(0.3688,0.332,0.624,0.6684);
    transform: matrix(0.704,0,0,0.704,0,0);
    opacity: 1;
  }
  32.6% {
    animation-timing-function: cubic-bezier(0.1368,0.2364,0.2451,0.9049);
    transform: matrix(0.958,0,0,0.958,0,0);
    opacity: 1;
  }
  37.4% {
    animation-timing-function: cubic-bezier(0.5936,0.0846,0.3495,1);
    transform: matrix(1.085,0,0,1.085,0,0);
    opacity: 1;
  }
  49.5% {
    animation-timing-function: cubic-bezier(0.5522,0.0981,0.3807,1);
    transform: matrix(0.802,0,0,0.802,0,0);
    opacity: 1;
  }
  62.4% {
    animation-timing-function: cubic-bezier(0.4497,0.1349,0.4911,1);
    transform: matrix(1.044,0,0,1.044,0,0);
    opacity: 1;
  }
  74.1% {
    animation-timing-function: cubic-bezier(0.429,0,0.5239,1);
    transform: matrix(0.914,0,0,0.914,0,0);
    opacity: 1;
  }
  87% {
    animation-timing-function: cubic-bezier(0.3501,0,0.6422,1);
    transform: matrix(1.013,0,0,1.013,0,0);
    opacity: 1;
  }
  95.8% {
    animation-timing-function: cubic-bezier(0.3653,0,0.6776,1);
    transform: matrix(0.992,0,0,0.992,0,0);
    opacity: 1;
  }
  100% {
    transform: matrix(1,0,0,1,0,0);
    opacity: 1;
  }
}</style></svg>